Simulation
nRows=23
nColumns=15
endheader
time  TH_x TH_y TH_z SC_y  SC_z  SC_x  AC_y  AC_z  AC_x  GH_y  GH_z  GH_yy  EL_x  PS_y
0.0  0.000000  0.000000  0.000000  -13.596339281893842  -8.1821543087807  0.6285358578458375  54.340057798971394  3.5035143994479485  -19.803377209169636  21.56970645672056  19.107036789738356  -6.398191438670718  24.205493672617774  120.000000
0.026999999999999993  0.000000  0.000000  0.000000  -13.928985460284428  -7.647124003003682  0.8922859185890745  54.099986086737296  3.3200529406075323  -19.609606098855362  20.211206109994436  19.276778091257697  -5.697536513474206  23.514404252555074  120.000000
0.053999999999999986  0.000000  0.000000  0.000000  -14.124778569853689  -7.312396171853013  1.1619723732472462  53.95607422164478  3.025524958527567  -19.33593628821159  18.991166564635446  19.48470142667882  -4.9494096660382745  23.002678387493813  120.000000
0.08099999999999997  0.000000  0.000000  0.000000  -14.18353981270368  -7.164964560576934  1.396797202968537  53.89247950876562  2.6282345634853197  -19.119163710561086  17.918943539830835  19.733353114117286  -4.158755348852251  22.691392203380392  120.000000
0.10799999999999997  0.000000  0.000000  0.000000  -14.155305428786745  -7.163110569528079  1.5984984829396789  53.8476778303871  2.1712112710369067  -19.038138257967763  16.968048422949103  20.031722435806675  -3.3482560433154767  22.549429650280114  120.000000
0.13499999999999995  0.000000  0.000000  0.000000  -14.095235388156754  -7.257411203102512  1.7784218782756023  53.756602593596696  1.715058301868363  -19.101065066047894  16.07684471445756  20.395828385544696  -2.5485855593579556  22.49632037523682  120.000000
0.16199999999999995  0.000000  0.000000  0.000000  -14.027707591375657  -7.39226973409445  1.9373014979964234  53.602425184925465  1.2918992629030595  -19.260661593347876  15.186928731929749  20.853333173468727  -1.7829834230288903  22.460149724137842  120.000000
0.18899999999999995  0.000000  0.000000  0.000000  -13.949384530046968  -7.531291567843237  2.0759390096439656  53.39848370479831  0.9049114842030388  -19.462461262852923  14.259331266280524  21.424448698644508  -1.0577386570505143  22.40289196588384  120.000000
0.21599999999999994  0.000000  0.000000  0.000000  -13.851642335234287  -7.654031002149712  2.19616114034363  53.16299050673727  0.5395676592524692  -19.664180196879975  13.273403023864821  22.116976776266537  -0.3692172566369307  22.310521361011663  120.000000
0.24299999999999994  0.000000  0.000000  0.000000  -13.727435624195541  -7.7512074238319535  2.2997933609556584  52.90872960957272  0.1840466043611987  -19.84438108039772  12.221870356167242  22.9293133644454  0.28897551026530494  22.186877472854633  120.000000
0.2699999999999999  0.000000  0.000000  0.000000  -13.57539038971897  -7.818222950471061  2.390585640922168  52.645407569969244  -0.1652622694176489  -19.995242764310973  11.106228728130983  23.856512605149256  0.920255959814377  22.04035881677298  120.000000
0.29699999999999993  0.000000  0.000000  0.000000  -13.398724923526094  -7.85109127860883  2.4739226789317366  52.381302684961035  -0.5043347703485788  -20.116898060964733  9.933735630043437  24.892856106869445  1.5218925850562497  21.881903228587703  120.000000
0.3239999999999999  0.000000  0.000000  0.000000  -13.204252230854049  -7.844385487536542  2.556382585187879  52.1251703357254  -0.8234956606995577  -20.212486160288048  8.716105954480668  26.0306776382123  2.086325663794862  21.72147205360037  120.000000
0.3509999999999999  0.000000  0.000000  0.000000  -13.000940426429596  -7.790657973164984  2.645236686173099  51.886375320905636  -1.111481231835406  -20.28502382199474  7.467953864797775  27.26104153259491  2.6010139184550516  21.56737807136857  120.000000
0.3779999999999999  0.000000  0.000000  0.000000  -12.799581831853844  -7.681901502333982  2.748539764119976  51.67618402299469  -1.35742534287574  -20.33608687762552  6.205535007159635  28.57317895459551  3.0503905813769085  21.425214244710595  120.000000
0.4049999999999999  0.000000  0.000000  0.000000  -12.61153804282181  -7.510875211994759  2.874169218723989  51.50639345133744  -1.5523324451225944  -20.364612413098083  4.945468630197794  29.955402904412797  3.4174163179772163  21.29733059952936  120.000000
0.4319999999999999  0.000000  0.000000  0.000000  -12.447437233366754  -7.271552322008001  3.0290475467398017  51.38917017998844  -1.6892222016594896  -20.367636527265528  3.7027688880814664  31.395220027846168  3.6862674902446515  21.183603780540984  120.000000
0.45899999999999985  0.000000  0.000000  0.000000  -12.316291294791673  -6.959460120217102  3.2184088700386995  51.33370885780332  -1.7633585983969677  -20.341208019124192  2.4897910585601597  32.87945006469927  3.8454604234910943  21.082007660365026  120.000000
0.4859999999999999  0.000000  0.000000  0.000000  -12.22536926720364  -6.572419827850266  3.4448470602188075  51.344944031705566  -1.7725438253989458  -20.281776038635677  1.3143483160100757  34.39398653389321  3.889363786815073  20.989423941810312  120.000000
0.5129999999999999  0.000000  0.000000  0.000000  -12.180501529709971  -6.110553186279567  3.7087483905504866  51.42243623651778  -1.7170111912298085  -20.186511910135426  0.18005892433229903  35.92419688548397  3.8186791145464105  20.902155770422816  120.000000
0.5399999999999998  0.000000  0.000000  0.000000  -12.186165243226206  -5.57603296324706  4.008578850463863  51.56231610219275  -1.5988083291240842  -20.053093013754708  -0.9136931164116312  37.45645999134731  3.6383467559710403  20.816633916872394  120.000000
0.5669999999999998  0.000000  0.000000  0.000000  -12.245628010887694  -4.9725002439002735  4.340973762677151  51.75894382106016  -1.4199624432243965  -19.878656656104848  -1.9700199999347179  38.979197648797246  3.3554268673306744  20.72974770594579  120.000000
0.5939999999999999  0.000000  0.000000  0.000000  -12.360944953672853  -4.304844335476807  4.701035182814617  52.00705366838414  -1.1820236553646375  -19.65951755122316  -2.9939098158142614  40.48359871339579  2.9763086352451964  20.639134807486077  120.000000
